{"title":"Linda - HornyThiefTales","uid":11757540,"size":367448700,"categoryP":"porn","categoryS":"movie_clips","magnet":"?xt=urn:btih:d47ce09a0b27be26f74bb5785b3dc8551addc054&amp;dn=Linda+-+HornyThiefTales&amp;tr=udp%3A%2F%2Ftracker.openbittorrent.com%3A80&amp;tr=udp%3A%2F%2Fopen.demonii.com%3A1337&amp;tr=udp%3A%2F%2Ftracker.coppersurfer.tk%3A6969&amp;tr=udp%3A%2F%2Fexodus.desync.com%3A6969","seeders":2,"leechers":3,"uploader":"athklym","files":2,"time":1426466082,"description":"\nHornyThiefTales_Linda.wmv\nFormat                                   : Windows Media\nFile size                                : 350 MiB\nDuration                                 : 23mn 56s\nOverall bit rate mode                    : Constant\nOverall bit rate                         : 2 043 Kbps\nMaximum Overall bit rate                 : 2 051 Kbps\nEncoded date                             : UTC 2010-05-10 01:25:00.207\n\nVideo\nID                                       : 2\nFormat                                   : VC-1\nFormat profile                           : MP@HL\nCodec ID                                 : WMV3\nCodec ID/Info                            : Windows Media Video 9\nCodec ID/Hint                            : WMV3\nDescription of the codec                 : Windows Media Video 9 - Professional\nDuration                                 : 23mn 56s\nBit rate mode                            : Constant\nBit rate                                 : 2 000 Kbps\nWidth                                    : 832 pixels\nHeight                                   : 468 pixels\nDisplay aspect ratio                     : 16:9\nFrame rate                               : 29.970 fps\nColor space                              : YUV\nChroma subsampling                       : 4:2:0\nBit depth                                : 8 bits\nScan type                                : Progressive\nCompression mode                         : Lossy\nBits/(Pixel*Frame)                       : 0.171\nStream size                              : 343 MiB (98%)\nNumberOfFrames                           : 43043\n\nAudio\nID                                       : 1\nFormat                                   : WMA\nFormat profile                           : Pro\nCodec ID                                 : 162\nCodec ID/Info                            : Windows Media Audio\nDescription of the codec                 : Windows Media Audio 10 Professional -  32 kbps, 32 kHz, 2 channel 16 bit 1-pass CBR\nDuration                                 : 23mn 56s\nBit rate mode                            : Constant\nBit rate                                 : 32.0 Kbps\nChannel(s)                               : 2 channels\nSampling rate                            : 32.0 KHz\nBit depth                                : 16 bits\nStream size                              : 5.48 MiB (2%)","torrent":{"xt":"urn:btih:d47ce09a0b27be26f74bb5785b3dc8551addc054","amp;dn":"Linda+-+HornyThiefTales","amp;tr":["udp%3A%2F%2Ftracker.openbittorrent.com%3A80","udp%3A%2F%2Fopen.demonii.com%3A1337","udp%3A%2F%2Ftracker.coppersurfer.tk%3A6969","udp%3A%2F%2Fexodus.desync.com%3A6969"],"infoHash":"d47ce09a0b27be26f74bb5785b3dc8551addc054","infoHashBuffer":{"type":"Buffer","data":[212,124,224,154,11,39,190,38,247,75,181,120,91,61,200,85,26,221,192,84]},"announce":[],"urlList":[]}}